ClarityCity-Regular.ufo
<glyph name="ampersand" format="1">
  <advance width="706"/>
  <unicode hex="0026"/>
  <outline>
    <contour>
      <point x="279" y="-12" type="curve" smooth="yes"/>
      <point x="449" y="-12"/>
      <point x="549" y="133"/>
      <point x="631" y="316" type="curve"/>
      <point x="566" y="345" type="line"/>
      <point x="505" y="184"/>
      <point x="407" y="55"/>
      <point x="282" y="55" type="curve" smooth="yes"/>
      <point x="204" y="55"/>
      <point x="138" y="103"/>
      <point x="138" y="184" type="curve" smooth="yes"/>
      <point x="138" y="258"/>
      <point x="200" y="313"/>
      <point x="296" y="349" type="curve" smooth="yes"/>
      <point x="412" y="393"/>
      <point x="499" y="434"/>
      <point x="499" y="536" type="curve" smooth="yes"/>
      <point x="499" y="622"/>
      <point x="429" y="695"/>
      <point x="337" y="695" type="curve" smooth="yes"/>
      <point x="234" y="695"/>
      <point x="162" y="624"/>
      <point x="162" y="534" type="curve" smooth="yes"/>
      <point x="162" y="474"/>
      <point x="188" y="421"/>
      <point x="243" y="353" type="curve" smooth="yes"/>
      <point x="317" y="261"/>
      <point x="396" y="177"/>
      <point x="579" y="-7" type="curve"/>
      <point x="650" y="26" type="line"/>
      <point x="480" y="198"/>
      <point x="397" y="284"/>
      <point x="310" y="388" type="curve" smooth="yes"/>
      <point x="260" y="446"/>
      <point x="237" y="493"/>
      <point x="237" y="534" type="curve" smooth="yes"/>
      <point x="237" y="593"/>
      <point x="280" y="628"/>
      <point x="337" y="628" type="curve" smooth="yes"/>
      <point x="388" y="628"/>
      <point x="424" y="587"/>
      <point x="424" y="534" type="curve" smooth="yes"/>
      <point x="424" y="470"/>
      <point x="372" y="440"/>
      <point x="253" y="396" type="curve" smooth="yes"/>
      <point x="125" y="349"/>
      <point x="63" y="280"/>
      <point x="63" y="182" type="curve" smooth="yes"/>
      <point x="63" y="62"/>
      <point x="157" y="-12"/>
    </contour>
  </outline>
</glyph>
<glyph name="parenright" format="1">
  <advance width="328"/>
  <unicode hex="0029"/>
  <outline>
    <contour>
      <point x="66" y="-170" type="line"/>
      <point x="200" y="-58"/>
      <point x="275" y="93"/>
      <point x="275" y="265" type="curve" smooth="yes"/>
      <point x="275" y="438"/>
      <point x="200" y="588"/>
      <point x="66" y="700" type="curve"/>
      <point x="26" y="658" type="line"/>
      <point x="135" y="546"/>
      <point x="195" y="429"/>
      <point x="195" y="265" type="curve" smooth="yes"/>
      <point x="195" y="102"/>
      <point x="135" y="-16"/>
      <point x="26" y="-127" type="curve"/>
    </contour>
  </outline>
</glyph>
<glyph name="asterisk" format="1">
  <advance width="463"/>
  <unicode hex="002A"/>
  <outline>
    <contour>
      <point x="231" y="376" type="curve" smooth="yes"/>
      <point x="245" y="376"/>
      <point x="256" y="386"/>
      <point x="256" y="398" type="curve" smooth="yes"/>
      <point x="256" y="440"/>
      <point x="245" y="481"/>
      <point x="240" y="523" type="curve"/>
      <point x="274" y="498"/>
      <point x="304" y="468"/>
      <point x="340" y="447" type="curve" smooth="yes"/>
      <point x="350" y="441"/>
      <point x="365" y="446"/>
      <point x="372" y="458" type="curve" smooth="yes"/>
      <point x="379" y="470"/>
      <point x="375" y="484"/>
      <point x="365" y="490" type="curve" smooth="yes"/>
      <point x="329" y="511"/>
      <point x="288" y="522"/>
      <point x="249" y="539" type="curve"/>
      <point x="288" y="556"/>
      <point x="329" y="567"/>
      <point x="365" y="588" type="curve" smooth="yes"/>
      <point x="375" y="594"/>
      <point x="379" y="608"/>
      <point x="372" y="620" type="curve" smooth="yes"/>
      <point x="365" y="632"/>
      <point x="350" y="637"/>
      <point x="340" y="631" type="curve" smooth="yes"/>
      <point x="304" y="610"/>
      <point x="274" y="580"/>
      <point x="240" y="555" type="curve"/>
      <point x="245" y="597"/>
      <point x="256" y="638"/>
      <point x="256" y="680" type="curve" smooth="yes"/>
      <point x="256" y="692"/>
      <point x="245" y="702"/>
      <point x="231" y="702" type="curve" smooth="yes"/>
      <point x="217" y="702"/>
      <point x="206" y="692"/>
      <point x="206" y="680" type="curve" smooth="yes"/>
      <point x="206" y="638"/>
      <point x="217" y="597"/>
      <point x="222" y="555" type="curve"/>
      <point x="188" y="580"/>
      <point x="158" y="610"/>
      <point x="122" y="631" type="curve" smooth="yes"/>
      <point x="112" y="637"/>
      <point x="97" y="632"/>
      <point x="90" y="620" type="curve" smooth="yes"/>
      <point x="83" y="608"/>
      <point x="87" y="594"/>
      <point x="97" y="588" type="curve" smooth="yes"/>
      <point x="133" y="567"/>
      <point x="174" y="556"/>
      <point x="213" y="539" type="curve"/>
      <point x="174" y="522"/>
      <point x="133" y="511"/>
      <point x="97" y="490" type="curve" smooth="yes"/>
      <point x="87" y="484"/>
      <point x="83" y="470"/>
      <point x="90" y="458" type="curve" smooth="yes"/>
      <point x="97" y="446"/>
      <point x="112" y="441"/>
      <point x="122" y="447" type="curve" smooth="yes"/>
      <point x="158" y="468"/>
      <point x="188" y="498"/>
      <point x="222" y="523" type="curve"/>
      <point x="217" y="481"/>
      <point x="206" y="440"/>
      <point x="206" y="398" type="curve" smooth="yes"/>
      <point x="206" y="386"/>
      <point x="217" y="376"/>
    </contour>
  </outline>
</glyph>
<glyph name="period" format="1">
  <advance width="324"/>
  <unicode hex="002E"/>
  <outline>
    <contour>
      <point x="163" y="-12" type="curve" smooth="yes"/>
      <point x="192" y="-12"/>
      <point x="216" y="13"/>
      <point x="216" y="43" type="curve" smooth="yes"/>
      <point x="216" y="71"/>
      <point x="192" y="96"/>
      <point x="163" y="96" type="curve" smooth="yes"/>
      <point x="132" y="96"/>
      <point x="108" y="71"/>
      <point x="108" y="43" type="curve" smooth="yes"/>
      <point x="108" y="13"/>
      <point x="132" y="-12"/>
    </contour>
  </outline>
</glyph>
<glyph name="zero" format="1">
  <advance width="691"/>
  <unicode hex="0030"/>
  <outline>
    <contour>
      <point x="346" y="-12" type="curve" smooth="yes"/>
      <point x="513" y="-12"/>
      <point x="631" y="135"/>
      <point x="631" y="344" type="curve" smooth="yes"/>
      <point x="631" y="552"/>
      <point x="513" y="699"/>
      <point x="346" y="699" type="curve" smooth="yes"/>
      <point x="178" y="699"/>
      <point x="60" y="552"/>
      <point x="60" y="344" type="curve" smooth="yes"/>
      <point x="60" y="135"/>
      <point x="178" y="-12"/>
    </contour>
    <contour>
      <point x="346" y="60" type="curve" smooth="yes"/>
      <point x="225" y="60"/>
      <point x="139" y="178"/>
      <point x="139" y="344" type="curve" smooth="yes"/>
      <point x="139" y="510"/>
      <point x="225" y="627"/>
      <point x="346" y="627" type="curve" smooth="yes"/>
      <point x="467" y="627"/>
      <point x="552" y="510"/>
      <point x="552" y="344" type="curve" smooth="yes"/>
      <point x="552" y="178"/>
      <point x="467" y="60"/>
    </contour>
  </outline>
</glyph>
<glyph name="one" format="1">
  <advance width="357"/>
  <unicode hex="0031"/>
  <outline>
    <contour>
      <point x="174" y="0" type="line"/>
      <point x="252" y="0" type="line"/>
      <point x="252" y="687" type="line"/>
      <point x="189" y="687" type="line"/>
      <point x="20" y="572" type="line"/>
      <point x="54" y="514" type="line"/>
      <point x="174" y="592" type="line"/>
    </contour>
  </outline>
</glyph>
<glyph name="four" format="1">
  <advance width="588"/>
  <unicode hex="0034"/>
  <outline>
    <contour>
      <point x="380" y="0" type="line"/>
      <point x="458" y="0" type="line"/>
      <point x="458" y="167" type="line"/>
      <point x="561" y="167" type="line"/>
      <point x="561" y="238" type="line"/>
      <point x="458" y="238" type="line"/>
      <point x="458" y="687" type="line"/>
      <point x="368" y="687" type="line"/>
      <point x="27" y="232" type="line"/>
      <point x="37" y="167" type="line"/>
      <point x="380" y="167" type="line"/>
    </contour>
    <contour>
      <point x="116" y="238" type="line"/>
      <point x="380" y="593" type="line"/>
      <point x="380" y="238" type="line"/>
    </contour>
  </outline>
</glyph>
<glyph name="six" format="1">
  <advance width="616"/>
  <unicode hex="0036"/>
  <outline>
    <contour>
      <point x="324" y="-12" type="curve" smooth="yes"/>
      <point x="467" y="-12"/>
      <point x="566" y="88"/>
      <point x="566" y="215" type="curve" smooth="yes"/>
      <point x="566" y="351"/>
      <point x="461" y="429"/>
      <point x="336" y="429" type="curve" smooth="yes"/>
      <point x="247" y="429"/>
      <point x="170" y="382"/>
      <point x="130" y="303" type="curve"/>
      <point x="147" y="203" type="line"/>
      <point x="151" y="296"/>
      <point x="224" y="362"/>
      <point x="322" y="362" type="curve" smooth="yes"/>
      <point x="414" y="362"/>
      <point x="487" y="305"/>
      <point x="487" y="211" type="curve" smooth="yes"/>
      <point x="487" y="135"/>
      <point x="426" y="55"/>
      <point x="323" y="55" type="curve" smooth="yes"/>
      <point x="198" y="55"/>
      <point x="142" y="181"/>
      <point x="142" y="333" type="curve" smooth="yes"/>
      <point x="142" y="498"/>
      <point x="229" y="628"/>
      <point x="339" y="628" type="curve" smooth="yes"/>
      <point x="405" y="628"/>
      <point x="450" y="598"/>
      <point x="493" y="556" type="curve"/>
      <point x="536" y="617" type="line"/>
      <point x="485" y="666"/>
      <point x="425" y="699"/>
      <point x="341" y="699" type="curve" smooth="yes"/>
      <point x="185" y="699"/>
      <point x="63" y="538"/>
      <point x="63" y="333" type="curve" smooth="yes"/>
      <point x="63" y="139"/>
      <point x="138" y="-12"/>
    </contour>
  </outline>
</glyph>
<glyph name="question" format="1">
  <advance width="521"/>
  <unicode hex="003F"/>
  <outline>
    <contour>
      <point x="191" y="193" type="line"/>
      <point x="270" y="193" type="line"/>
      <point x="270" y="321" type="line"/>
      <point x="387" y="346"/>
      <point x="470" y="427"/>
      <point x="470" y="516" type="curve" smooth="yes"/>
      <point x="470" y="618"/>
      <point x="387" y="699"/>
      <point x="260" y="699" type="curve" smooth="yes"/>
      <point x="159" y="699"/>
      <point x="87" y="650"/>
      <point x="34" y="584" type="curve"/>
      <point x="85" y="533" type="line"/>
      <point x="129" y="587"/>
      <point x="181" y="628"/>
      <point x="256" y="628" type="curve" smooth="yes"/>
      <point x="340" y="628"/>
      <point x="391" y="570"/>
      <point x="391" y="509" type="curve" smooth="yes"/>
      <point x="391" y="444"/>
      <point x="308" y="390"/>
      <point x="191" y="380" type="curve"/>
    </contour>
    <component base="period" xOffset="67"/>
  </outline>
</glyph>
<glyph name="B" format="1">
  <advance width="703"/>
  <unicode hex="0042"/>
  <outline>
    <contour>
      <point x="109" y="0" type="line"/>
      <point x="436" y="0" type="line" smooth="yes"/>
      <point x="555" y="0"/>
      <point x="640" y="78"/>
      <point x="640" y="188" type="curve" smooth="yes"/>
      <point x="640" y="263"/>
      <point x="594" y="325"/>
      <point x="515" y="365" type="curve"/>
      <point x="577" y="401"/>
      <point x="613" y="443"/>
      <point x="613" y="516" type="curve" smooth="yes"/>
      <point x="613" y="616"/>
      <point x="535" y="687"/>
      <point x="424" y="687" type="curve" smooth="yes"/>
      <point x="109" y="687" type="line"/>
    </contour>
    <contour>
      <point x="187" y="71" type="line"/>
      <point x="187" y="325" type="line"/>
      <point x="416" y="325" type="line" smooth="yes"/>
      <point x="501" y="325"/>
      <point x="561" y="272"/>
      <point x="561" y="198" type="curve" smooth="yes"/>
      <point x="561" y="124"/>
      <point x="501" y="71"/>
      <point x="416" y="71" type="curve" smooth="yes"/>
    </contour>
    <contour>
      <point x="187" y="396" type="line"/>
      <point x="187" y="616" type="line"/>
      <point x="404" y="616" type="line" smooth="yes"/>
      <point x="480" y="616"/>
      <point x="534" y="570"/>
      <point x="534" y="506" type="curve" smooth="yes"/>
      <point x="534" y="442"/>
      <point x="480" y="396"/>
      <point x="404" y="396" type="curve" smooth="yes"/>
    </contour>
  </outline>
</glyph>
<glyph name="C" format="1">
  <advance width="692"/>
  <unicode hex="0043"/>
  <outline>
    <contour>
      <point x="408" y="-12" type="curve" smooth="yes"/>
      <point x="503" y="-12"/>
      <point x="591" y="29"/>
      <point x="655" y="93" type="curve"/>
      <point x="602" y="147" type="line"/>
      <point x="552" y="94"/>
      <point x="483" y="60"/>
      <point x="408" y="60" type="curve" smooth="yes"/>
      <point x="260" y="60"/>
      <point x="135" y="190"/>
      <point x="135" y="344" type="curve" smooth="yes"/>
      <point x="135" y="497"/>
      <point x="260" y="627"/>
      <point x="408" y="627" type="curve" smooth="yes"/>
      <point x="483" y="627"/>
      <point x="552" y="593"/>
      <point x="602" y="540" type="curve"/>
      <point x="655" y="594" type="line"/>
      <point x="591" y="659"/>
      <point x="503" y="699"/>
      <point x="408" y="699" type="curve" smooth="yes"/>
      <point x="218" y="699"/>
      <point x="56" y="537"/>
      <point x="56" y="344" type="curve" smooth="yes"/>
      <point x="56" y="151"/>
      <point x="218" y="-12"/>
    </contour>
    <contour>
      <point x="408" y="0" type="move" name="bottom"/>
    </contour>
    <contour>
      <point x="408" y="687" type="move" name="top"/>
    </contour>
  </outline>
</glyph>
<glyph name="J" format="1">
  <advance width="547"/>
  <unicode hex="004A"/>
  <outline>
    <contour>
      <point x="233" y="-12" type="curve" smooth="yes"/>
      <point x="360" y="-12"/>
      <point x="450" y="86"/>
      <point x="450" y="224" type="curve" smooth="yes"/>
      <point x="450" y="687" type="line"/>
      <point x="372" y="687" type="line"/>
      <point x="372" y="224" type="line" smooth="yes"/>
      <point x="372" y="127"/>
      <point x="314" y="59"/>
      <point x="233" y="59" type="curve" smooth="yes"/>
      <point x="170" y="59"/>
      <point x="106" y="100"/>
      <point x="79" y="158" type="curve"/>
      <point x="22" y="102" type="line"/>
      <point x="64" y="35"/>
      <point x="152" y="-12"/>
    </contour>
  </outline>
</glyph>
<glyph name="M" format="1">
  <advance width="884"/>
  <unicode hex="004D"/>
  <outline>
    <contour>
      <point x="109" y="0" type="line"/>
      <point x="187" y="0" type="line"/>
      <point x="187" y="519" type="line"/>
      <point x="442" y="40" type="line"/>
      <point x="697" y="519" type="line"/>
      <point x="697" y="0" type="line"/>
      <point x="775" y="0" type="line"/>
      <point x="775" y="687" type="line"/>
      <point x="697" y="687" type="line"/>
      <point x="442" y="208" type="line"/>
      <point x="187" y="687" type="line"/>
      <point x="109" y="687" type="line"/>
    </contour>
  </outline>
</glyph>
<glyph name="N" format="1">
  <advance width="800"/>
  <unicode hex="004E"/>
  <outline>
    <contour>
      <point x="109" y="0" type="line"/>
      <point x="187" y="0" type="line"/>
      <point x="187" y="559" type="line"/>
      <point x="613" y="0" type="line"/>
      <point x="691" y="0" type="line"/>
      <point x="691" y="687" type="line"/>
      <point x="613" y="687" type="line"/>
      <point x="613" y="128" type="line"/>
      <point x="187" y="687" type="line"/>
      <point x="109" y="687" type="line"/>
    </contour>
    <contour>
      <point x="400" y="0" type="move" name="bottom"/>
    </contour>
    <contour>
      <point x="400" y="687" type="move" name="top"/>
    </contour>
  </outline>
</glyph>
<glyph name="O" format="1">
  <advance width="816"/>
  <unicode hex="004F"/>
  <outline>
    <contour>
      <point x="408" y="-12" type="curve" smooth="yes"/>
      <point x="599" y="-12"/>
      <point x="759" y="151"/>
      <point x="759" y="344" type="curve" smooth="yes"/>
      <point x="759" y="537"/>
      <point x="599" y="699"/>
      <point x="408" y="699" type="curve" smooth="yes"/>
      <point x="218" y="699"/>
      <point x="56" y="537"/>
      <point x="56" y="344" type="curve" smooth="yes"/>
      <point x="56" y="151"/>
      <point x="218" y="-12"/>
    </contour>
    <contour>
      <point x="408" y="60" type="curve" smooth="yes"/>
      <point x="260" y="60"/>
      <point x="135" y="190"/>
      <point x="135" y="344" type="curve" smooth="yes"/>
      <point x="135" y="497"/>
      <point x="260" y="627"/>
      <point x="408" y="627" type="curve" smooth="yes"/>
      <point x="556" y="627"/>
      <point x="680" y="497"/>
      <point x="680" y="344" type="curve" smooth="yes"/>
      <point x="680" y="190"/>
      <point x="556" y="60"/>
    </contour>
    <contour>
      <point x="408" y="687" type="move" name="top"/>
    </contour>
  </outline>
</glyph>
<glyph name="P" format="1">
  <advance width="685"/>
  <unicode hex="0050"/>
  <outline>
    <contour>
      <point x="109" y="0" type="line"/>
      <point x="187" y="0" type="line"/>
      <point x="187" y="247" type="line"/>
      <point x="388" y="247" type="line" smooth="yes"/>
      <point x="530" y="247"/>
      <point x="641" y="338"/>
      <point x="641" y="467" type="curve" smooth="yes"/>
      <point x="641" y="596"/>
      <point x="530" y="687"/>
      <point x="388" y="687" type="curve" smooth="yes"/>
      <point x="109" y="687" type="line"/>
    </contour>
    <contour>
      <point x="187" y="321" type="line"/>
      <point x="187" y="613" type="line"/>
      <point x="374" y="613" type="line" smooth="yes"/>
      <point x="486" y="613"/>
      <point x="562" y="559"/>
      <point x="562" y="467" type="curve" smooth="yes"/>
      <point x="562" y="375"/>
      <point x="486" y="321"/>
      <point x="374" y="321" type="curve" smooth="yes"/>
    </contour>
  </outline>
</glyph>
<glyph name="T" format="1">
  <advance width="590"/>
  <unicode hex="0054"/>
  <outline>
    <contour>
      <point x="256" y="0" type="line"/>
      <point x="334" y="0" type="line"/>
      <point x="334" y="613" type="line"/>
      <point x="565" y="613" type="line"/>
      <point x="565" y="687" type="line"/>
      <point x="25" y="687" type="line"/>
      <point x="25" y="613" type="line"/>
      <point x="256" y="613" type="line"/>
    </contour>
    <contour>
      <point x="295" y="0" type="move" name="bottom"/>
    </contour>
    <contour>
      <point x="295" y="687" type="move" name="top"/>
    </contour>
  </outline>
</glyph>
<glyph name="U" format="1">
  <advance width="756"/>
  <unicode hex="0055"/>
  <outline>
    <contour>
      <point x="378" y="-12" type="curve" smooth="yes"/>
      <point x="546" y="-12"/>
      <point x="665" y="111"/>
      <point x="665" y="285" type="curve" smooth="yes"/>
      <point x="665" y="687" type="line"/>
      <point x="587" y="687" type="line"/>
      <point x="587" y="285" type="line" smooth="yes"/>
      <point x="587" y="153"/>
      <point x="500" y="59"/>
      <point x="378" y="59" type="curve" smooth="yes"/>
      <point x="256" y="59"/>
      <point x="169" y="153"/>
      <point x="169" y="285" type="curve" smooth="yes"/>
      <point x="169" y="687" type="line"/>
      <point x="91" y="687" type="line"/>
      <point x="91" y="285" type="line" smooth="yes"/>
      <point x="91" y="111"/>
      <point x="210" y="-12"/>
    </contour>
    <contour>
      <point x="378" y="-12" type="move" name="bottom"/>
    </contour>
    <contour>
      <point x="378" y="687" type="move" name="top"/>
    </contour>
  </outline>
</glyph>
<glyph name="W" format="1">
  <advance width="1067"/>
  <unicode hex="0057"/>
  <outline>
    <contour>
      <point x="265" y="0" type="line"/>
      <point x="342" y="0" type="line"/>
      <point x="534" y="585" type="line"/>
      <point x="725" y="0" type="line"/>
      <point x="802" y="0" type="line"/>
      <point x="1037" y="687" type="line"/>
      <point x="949" y="687" type="line"/>
      <point x="759" y="131" type="line"/>
      <point x="577" y="687" type="line"/>
      <point x="490" y="687" type="line"/>
      <point x="308" y="131" type="line"/>
      <point x="118" y="687" type="line"/>
      <point x="30" y="687" type="line"/>
    </contour>
    <contour>
      <point x="534" y="687" type="move" name="top"/>
    </contour>
  </outline>
</glyph>
<glyph name="Y" format="1">
  <advance width="673"/>
  <unicode hex="0059"/>
  <outline>
    <contour>
      <point x="296" y="0" type="line"/>
      <point x="378" y="0" type="line"/>
      <point x="378" y="280" type="line"/>
      <point x="654" y="687" type="line"/>
      <point x="560" y="687" type="line"/>
      <point x="337" y="354" type="line"/>
      <point x="116" y="687" type="line"/>
      <point x="19" y="687" type="line"/>
      <point x="296" y="280" type="line"/>
    </contour>
    <contour>
      <point x="337" y="687" type="move" name="top"/>
    </contour>
  </outline>
</glyph>
<glyph name="bracketleft" format="1">
  <advance width="370"/>
  <unicode hex="005B"/>
  <outline>
    <contour>
      <point x="105" y="-115" type="line"/>
      <point x="341" y="-115" type="line"/>
      <point x="341" y="-58" type="line"/>
      <point x="171" y="-58" type="line"/>
      <point x="171" y="677" type="line"/>
      <point x="341" y="677" type="line"/>
      <point x="341" y="734" type="line"/>
      <point x="105" y="734" type="line"/>
    </contour>
  </outline>
</glyph>
<glyph name="bracketright" format="1">
  <advance width="370"/>
  <unicode hex="005D"/>
  <outline>
    <contour>
      <point x="29" y="-115" type="line"/>
      <point x="265" y="-115" type="line"/>
      <point x="265" y="734" type="line"/>
      <point x="29" y="734" type="line"/>
      <point x="29" y="677" type="line"/>
      <point x="199" y="677" type="line"/>
      <point x="199" y="-58" type="line"/>
      <point x="29" y="-58" type="line"/>
    </contour>
  </outline>
</glyph>
<glyph name="underscore" format="1">
  <advance width="768"/>
  <unicode hex="005F"/>
  <outline>
    <contour>
      <point x="86" y="-142" type="line"/>
      <point x="682" y="-142" type="line"/>
      <point x="682" y="-75" type="line"/>
      <point x="86" y="-75" type="line"/>
    </contour>
  </outline>
</glyph>
<glyph name="e" format="1">
  <advance width="583"/>
  <unicode hex="0065"/>
  <outline>
    <contour>
      <point x="306" y="-12" type="curve" smooth="yes"/>
      <point x="378" y="-12"/>
      <point x="469" y="19"/>
      <point x="514" y="68" type="curve"/>
      <point x="468" y="117" type="line"/>
      <point x="436" y="82"/>
      <point x="366" y="55"/>
      <point x="305" y="55" type="curve" smooth="yes"/>
      <point x="193" y="55"/>
      <point x="119" y="144"/>
      <point x="119" y="260" type="curve" smooth="yes"/>
      <point x="119" y="380"/>
      <point x="199" y="462"/>
      <point x="302" y="462" type="curve" smooth="yes"/>
      <point x="415" y="462"/>
      <point x="471" y="374"/>
      <point x="471" y="268" type="curve"/>
      <point x="514" y="297" type="line"/>
      <point x="95" y="297" type="line"/>
      <point x="95" y="230" type="line"/>
      <point x="544" y="230" type="line"/>
      <point x="544" y="411"/>
      <point x="455" y="529"/>
      <point x="299" y="529" type="curve" smooth="yes"/>
      <point x="160" y="529"/>
      <point x="44" y="414"/>
      <point x="44" y="260" type="curve" smooth="yes"/>
      <point x="44" y="101"/>
      <point x="168" y="-12"/>
    </contour>
    <contour>
      <point x="276" y="-12" type="move" name="bottom"/>
    </contour>
    <contour>
      <point x="299" y="517" type="move" name="top"/>
    </contour>
  </outline>
</glyph>
<glyph name="k" format="1">
  <advance width="549"/>
  <unicode hex="006B"/>
  <outline>
    <contour>
      <point x="87" y="0" type="line"/>
      <point x="162" y="0" type="line"/>
      <point x="162" y="137" type="line"/>
      <point x="255" y="229" type="line"/>
      <point x="434" y="0" type="line"/>
      <point x="528" y="0" type="line"/>
      <point x="308" y="280" type="line"/>
      <point x="541" y="517" type="line"/>
      <point x="445" y="517" type="line"/>
      <point x="162" y="231" type="line"/>
      <point x="162" y="699" type="line"/>
      <point x="87" y="699" type="line"/>
    </contour>
    <contour>
      <point x="274" y="0" type="move" name="bottom"/>
    </contour>
  </outline>
</glyph>
<glyph name="o" format="1">
  <advance width="617"/>
  <unicode hex="006F"/>
  <outline>
    <contour>
      <point x="309" y="-12" type="curve" smooth="yes"/>
      <point x="455" y="-12"/>
      <point x="575" y="110"/>
      <point x="575" y="259" type="curve" smooth="yes"/>
      <point x="575" y="408"/>
      <point x="455" y="529"/>
      <point x="309" y="529" type="curve" smooth="yes"/>
      <point x="162" y="529"/>
      <point x="42" y="408"/>
      <point x="42" y="259" type="curve" smooth="yes"/>
      <point x="42" y="110"/>
      <point x="162" y="-12"/>
    </contour>
    <contour>
      <point x="309" y="55" type="curve" smooth="yes"/>
      <point x="205" y="55"/>
      <point x="120" y="147"/>
      <point x="120" y="259" type="curve" smooth="yes"/>
      <point x="120" y="371"/>
      <point x="205" y="462"/>
      <point x="309" y="462" type="curve" smooth="yes"/>
      <point x="412" y="462"/>
      <point x="497" y="371"/>
      <point x="497" y="259" type="curve" smooth="yes"/>
      <point x="497" y="147"/>
      <point x="412" y="55"/>
    </contour>
    <contour>
      <point x="309" y="517" type="move" name="top"/>
    </contour>
  </outline>
</glyph>
<glyph name="w" format="1">
  <advance width="797"/>
  <unicode hex="0077"/>
  <outline>
    <contour>
      <point x="189" y="0" type="line"/>
      <point x="260" y="0" type="line"/>
      <point x="399" y="413" type="line"/>
      <point x="536" y="0" type="line"/>
      <point x="607" y="0" type="line"/>
      <point x="781" y="517" type="line"/>
      <point x="701" y="517" type="line"/>
      <point x="572" y="100" type="line"/>
      <point x="431" y="517" type="line"/>
      <point x="366" y="517" type="line"/>
      <point x="225" y="100" type="line"/>
      <point x="96" y="517" type="line"/>
      <point x="16" y="517" type="line"/>
    </contour>
    <contour>
      <point x="399" y="517" type="move" name="top"/>
    </contour>
  </outline>
</glyph>
<glyph name="x" format="1">
  <advance width="511"/>
  <unicode hex="0078"/>
  <outline>
    <contour>
      <point x="411" y="0" type="line"/>
      <point x="499" y="0" type="line"/>
      <point x="108" y="517" type="line"/>
      <point x="20" y="517" type="line"/>
    </contour>
    <contour>
      <point x="12" y="0" type="line"/>
      <point x="100" y="0" type="line"/>
      <point x="491" y="517" type="line"/>
      <point x="403" y="517" type="line"/>
    </contour>
  </outline>
</glyph>
<glyph name="z" format="1">
  <advance width="475"/>
  <unicode hex="007A"/>
  <outline>
    <contour>
      <point x="33" y="0" type="line"/>
      <point x="441" y="0" type="line"/>
      <point x="441" y="71" type="line"/>
      <point x="133" y="71" type="line"/>
      <point x="439" y="458" type="line"/>
      <point x="439" y="517" type="line"/>
      <point x="39" y="517" type="line"/>
      <point x="39" y="446" type="line"/>
      <point x="338" y="446" type="line"/>
      <point x="33" y="59" type="line"/>
    </contour>
    <contour>
      <point x="243" y="517" type="move" name="top"/>
    </contour>
  </outline>
</glyph>
<glyph name="braceleft" format="1">
  <advance width="354"/>
  <unicode hex="007B"/>
  <outline>
    <contour>
      <point x="321" y="-166" type="curve"/>
      <point x="327" y="-113" type="line"/>
      <point x="210" y="-95"/>
      <point x="185" y="-73"/>
      <point x="185" y="8" type="curve" smooth="yes"/>
      <point x="186" y="151" type="line" smooth="yes"/>
      <point x="186" y="214"/>
      <point x="161" y="248"/>
      <point x="111" y="266" type="curve"/>
      <point x="160" y="283"/>
      <point x="186" y="317"/>
      <point x="186" y="380" type="curve" smooth="yes"/>
      <point x="185" y="524" type="line" smooth="yes"/>
      <point x="185" y="603"/>
      <point x="208" y="626"/>
      <point x="327" y="644" type="curve"/>
      <point x="321" y="697" type="line"/>
      <point x="167" y="680"/>
      <point x="120" y="632"/>
      <point x="120" y="528" type="curve" smooth="yes"/>
      <point x="120" y="388" type="line" smooth="yes"/>
      <point x="120" y="322"/>
      <point x="94" y="293"/>
      <point x="22" y="293" type="curve"/>
      <point x="22" y="238" type="line"/>
      <point x="93" y="238"/>
      <point x="120" y="211"/>
      <point x="120" y="144" type="curve" smooth="yes"/>
      <point x="120" y="3" type="line" smooth="yes"/>
      <point x="120" y="-100"/>
      <point x="166" y="-149"/>
    </contour>
  </outline>
</glyph>
<glyph name="yen" format="1">
  <advance width="753"/>
  <unicode hex="00A5"/>
  <outline>
    <contour>
      <point x="129" y="115" type="line"/>
      <point x="625" y="115" type="line"/>
      <point x="625" y="182" type="line"/>
      <point x="129" y="182" type="line"/>
    </contour>
    <contour>
      <point x="129" y="262" type="line"/>
      <point x="625" y="262" type="line"/>
      <point x="625" y="329" type="line"/>
      <point x="129" y="329" type="line"/>
    </contour>
    <component base="Y" xOffset="39"/>
  </outline>
</glyph>
<glyph name="acute" format="1">
  <advance width="263"/>
  <unicode hex="00B4"/>
  <outline>
    <contour>
      <point x="30" y="576" type="line"/>
      <point x="88" y="576" type="line"/>
      <point x="230" y="702" type="line"/>
      <point x="151" y="720" type="line"/>
    </contour>
    <contour>
      <point x="59" y="517" type="move" name="_top"/>
    </contour>
    <contour>
      <point x="59" y="704" type="move" name="top"/>
    </contour>
  </outline>
</glyph>
<glyph name="cedilla" format="1">
  <advance width="293"/>
  <unicode hex="00B8"/>
  <outline>
    <contour>
      <point x="136" y="-192" type="curve" smooth="yes"/>
      <point x="191" y="-192"/>
      <point x="234" y="-160"/>
      <point x="234" y="-111" type="curve" smooth="yes"/>
      <point x="234" y="-72"/>
      <point x="205" y="-45"/>
      <point x="165" y="-45" type="curve" smooth="yes"/>
      <point x="142" y="-45"/>
      <point x="114" y="-54"/>
      <point x="98" y="-67" type="curve"/>
      <point x="145" y="-67" type="line"/>
      <point x="178" y="11" type="line"/>
      <point x="126" y="11" type="line"/>
      <point x="93" y="-67" type="line"/>
      <point x="109" y="-84" type="line"/>
      <point x="118" y="-77"/>
      <point x="131" y="-73"/>
      <point x="143" y="-73" type="curve" smooth="yes"/>
      <point x="170" y="-73"/>
      <point x="182" y="-88"/>
      <point x="182" y="-107" type="curve" smooth="yes"/>
      <point x="182" y="-129"/>
      <point x="161" y="-145"/>
      <point x="132" y="-145" type="curve" smooth="yes"/>
      <point x="110" y="-145"/>
      <point x="87" y="-138"/>
      <point x="67" y="-122" type="curve"/>
      <point x="48" y="-164" type="line"/>
      <point x="68" y="-180"/>
      <point x="101" y="-192"/>
    </contour>
    <contour>
      <point x="149" y="0" type="move" name="_bottom"/>
    </contour>
  </outline>
</glyph>
<glyph name="AE" format="1">
  <advance width="1014"/>
  <unicode hex="00C6"/>
  <outline>
    <contour>
      <point x="21" y="0" type="line"/>
      <point x="111" y="0" type="line"/>
      <point x="201" y="156" type="line"/>
      <point x="465" y="156" type="line"/>
      <point x="465" y="0" type="line"/>
      <point x="958" y="0" type="line"/>
      <point x="958" y="74" type="line"/>
      <point x="544" y="74" type="line"/>
      <point x="544" y="313" type="line"/>
      <point x="917" y="313" type="line"/>
      <point x="917" y="387" type="line"/>
      <point x="544" y="387" type="line"/>
      <point x="544" y="613" type="line"/>
      <point x="958" y="613" type="line"/>
      <point x="958" y="687" type="line"/>
      <point x="417" y="687" type="line"/>
    </contour>
    <contour>
      <point x="244" y="230" type="line"/>
      <point x="465" y="613" type="line"/>
      <point x="465" y="230" type="line"/>
    </contour>
  </outline>
</glyph>
<glyph name="Eth" format="1">
  <advance width="788"/>
  <unicode hex="00D0"/>
  <outline>
    <contour>
      <point x="44" y="313" type="line"/>
      <point x="392" y="313" type="line"/>
      <point x="393" y="387" type="line"/>
      <point x="44" y="387" type="line"/>
    </contour>
    <component base="D" xOffset="19"/>
  </outline>
</glyph>
<glyph name="multiply" format="1">
  <advance width="534"/>
  <unicode hex="00D7"/>
  <outline>
    <contour>
      <point x="131" y="146" type="line"/>
      <point x="455" y="470" type="line"/>
      <point x="403" y="523" type="line"/>
      <point x="78" y="198" type="line"/>
    </contour>
    <contour>
      <point x="402" y="146" type="line"/>
      <point x="455" y="199" type="line"/>
      <point x="131" y="523" type="line"/>
      <point x="78" y="470" type="line"/>
    </contour>
  </outline>
</glyph>
<glyph name="Thorn" format="1">
  <advance width="699"/>
  <unicode hex="00DE"/>
  <outline>
    <contour>
      <point x="102" y="0" type="line"/>
      <point x="180" y="0" type="line"/>
      <point x="180" y="126" type="line"/>
      <point x="381" y="126" type="line" smooth="yes"/>
      <point x="523" y="126"/>
      <point x="634" y="217"/>
      <point x="634" y="346" type="curve" smooth="yes"/>
      <point x="634" y="475"/>
      <point x="523" y="566"/>
      <point x="381" y="566" type="curve" smooth="yes"/>
      <point x="182" y="566" type="line"/>
      <point x="182" y="687" type="line"/>
      <point x="102" y="687" type="line"/>
    </contour>
    <contour>
      <point x="180" y="200" type="line"/>
      <point x="180" y="492" type="line"/>
      <point x="367" y="492" type="line" smooth="yes"/>
      <point x="479" y="492"/>
      <point x="555" y="438"/>
      <point x="555" y="346" type="curve" smooth="yes"/>
      <point x="555" y="254"/>
      <point x="479" y="200"/>
      <point x="367" y="200" type="curve" smooth="yes"/>
    </contour>
  </outline>
</glyph>
<glyph name="germandbls" format="1">
  <advance width="579"/>
  <unicode hex="00DF"/>
  <outline>
    <contour>
      <point x="87" y="0" type="line"/>
      <point x="165" y="0" type="line"/>
      <point x="165" y="513" type="line" smooth="yes"/>
      <point x="165" y="585"/>
      <point x="219" y="636"/>
      <point x="295" y="636" type="curve" smooth="yes"/>
      <point x="371" y="636"/>
      <point x="425" y="586"/>
      <point x="425" y="516" type="curve" smooth="yes"/>
      <point x="425" y="452"/>
      <point x="371" y="396"/>
      <point x="295" y="396" type="curve" smooth="yes"/>
      <point x="240" y="396" type="line"/>
      <point x="240" y="325" type="line"/>
      <point x="307" y="325" type="line" smooth="yes"/>
      <point x="392" y="325"/>
      <point x="452" y="272"/>
      <point x="452" y="198" type="curve" smooth="yes"/>
      <point x="452" y="124"/>
      <point x="392" y="71"/>
      <point x="307" y="71" type="curve" smooth="yes"/>
      <point x="240" y="71" type="line"/>
      <point x="240" y="0" type="line"/>
      <point x="327" y="0" type="line" smooth="yes"/>
      <point x="446" y="0"/>
      <point x="531" y="78"/>
      <point x="531" y="188" type="curve" smooth="yes"/>
      <point x="531" y="274"/>
      <point x="491" y="331"/>
      <point x="406" y="365" type="curve"/>
      <point x="472" y="395"/>
      <point x="504" y="447"/>
      <point x="504" y="526" type="curve" smooth="yes"/>
      <point x="504" y="632"/>
      <point x="418" y="707"/>
      <point x="296" y="707" type="curve" smooth="yes"/>
      <point x="174" y="707"/>
      <point x="87" y="632"/>
      <point x="87" y="526" type="curve" smooth="yes"/>
    </contour>
  </outline>
</glyph>
<glyph name="divide" format="1">
  <advance width="595"/>
  <unicode hex="00F7"/>
  <outline>
    <contour>
      <point x="68" y="297" type="line"/>
      <point x="527" y="297" type="line"/>
      <point x="527" y="371" type="line"/>
      <point x="68" y="371" type="line"/>
    </contour>
    <contour>
      <point x="299" y="118" type="curve" smooth="yes"/>
      <point x="328" y="118"/>
      <point x="352" y="143"/>
      <point x="352" y="173" type="curve" smooth="yes"/>
      <point x="352" y="201"/>
      <point x="328" y="226"/>
      <point x="299" y="226" type="curve" smooth="yes"/>
      <point x="268" y="226"/>
      <point x="244" y="201"/>
      <point x="244" y="173" type="curve" smooth="yes"/>
      <point x="244" y="143"/>
      <point x="268" y="118"/>
    </contour>
    <contour>
      <point x="299" y="442" type="curve" smooth="yes"/>
      <point x="328" y="442"/>
      <point x="352" y="467"/>
      <point x="352" y="497" type="curve" smooth="yes"/>
      <point x="352" y="525"/>
      <point x="328" y="550"/>
      <point x="299" y="550" type="curve" smooth="yes"/>
      <point x="268" y="550"/>
      <point x="244" y="525"/>
      <point x="244" y="497" type="curve" smooth="yes"/>
      <point x="244" y="467"/>
      <point x="268" y="442"/>
    </contour>
  </outline>
</glyph>
<glyph name="idotless" format="1">
  <advance width="249"/>
  <unicode hex="0131"/>
  <outline>
    <contour>
      <point x="87" y="0" type="line"/>
      <point x="162" y="0" type="line"/>
      <point x="162" y="517" type="line"/>
      <point x="87" y="517" type="line"/>
    </contour>
    <contour>
      <point x="162" y="0" type="move" name="bottom"/>
    </contour>
    <contour>
      <point x="87" y="259" type="move" name="loop_left"/>
    </contour>
    <contour>
      <point x="162" y="291" type="move" name="r_shoulder"/>
    </contour>
    <contour>
      <point x="162" y="329" type="move" name="shoulder"/>
    </contour>
    <contour>
      <point x="125" y="517" type="move" name="top"/>
    </contour>
  </outline>
</glyph>
<glyph name="OE" format="1">
  <advance width="1036"/>
  <unicode hex="0152"/>
  <outline>
    <contour>
      <point x="55" y="334" type="curve" smooth="yes"/>
      <point x="55" y="141"/>
      <point x="217" y="0"/>
      <point x="407" y="0" type="curve" smooth="yes"/>
      <point x="980" y="0" type="line"/>
      <point x="980" y="74" type="line"/>
      <point x="566" y="74" type="line"/>
      <point x="566" y="313" type="line"/>
      <point x="939" y="313" type="line"/>
      <point x="939" y="387" type="line"/>
      <point x="566" y="387" type="line"/>
      <point x="566" y="613" type="line"/>
      <point x="980" y="613" type="line"/>
      <point x="980" y="687" type="line"/>
      <point x="407" y="687" type="line" smooth="yes"/>
      <point x="217" y="687"/>
      <point x="55" y="527"/>
    </contour>
    <contour>
      <point x="134" y="334" type="curve" smooth="yes"/>
      <point x="134" y="487"/>
      <point x="259" y="615"/>
      <point x="407" y="615" type="curve" smooth="yes"/>
      <point x="487" y="615" type="line"/>
      <point x="487" y="72" type="line"/>
      <point x="407" y="72" type="line" smooth="yes"/>
      <point x="259" y="72"/>
      <point x="134" y="180"/>
    </contour>
  </outline>
</glyph>
<glyph name="caron" format="1">
  <advance width="347"/>
  <unicode hex="02C7"/>
  <outline>
    <contour>
      <point x="138" y="576" type="line"/>
      <point x="208" y="576" type="line"/>
      <point x="310" y="713" type="line"/>
      <point x="252" y="713" type="line"/>
      <point x="173" y="627" type="line"/>
      <point x="95" y="713" type="line"/>
      <point x="38" y="713" type="line"/>
    </contour>
    <contour>
      <point x="173" y="517" type="move" name="_top"/>
    </contour>
    <contour>
      <point x="173" y="704" type="move" name="top"/>
    </contour>
  </outline>
</glyph>
<glyph name="dotaccent" format="1">
  <advance width="241"/>
  <unicode hex="02D9"/>
  <outline>
    <contour>
      <point x="121" y="597" type="curve" smooth="yes"/>
      <point x="146" y="597"/>
      <point x="167" y="618"/>
      <point x="167" y="643" type="curve" smooth="yes"/>
      <point x="167" y="667"/>
      <point x="146" y="689"/>
      <point x="121" y="689" type="curve" smooth="yes"/>
      <point x="95" y="689"/>
      <point x="75" y="667"/>
      <point x="75" y="643" type="curve" smooth="yes"/>
      <point x="75" y="618"/>
      <point x="95" y="597"/>
    </contour>
    <contour>
      <point x="121" y="517" type="move" name="_top"/>
    </contour>
    <contour>
      <point x="121" y="0" type="move" name="bottom"/>
    </contour>
    <contour>
      <point x="121" y="704" type="move" name="top"/>
    </contour>
  </outline>
</glyph>
<glyph name="ring" format="1">
  <advance width="333"/>
  <unicode hex="02DA"/>
  <outline>
    <contour>
      <point x="166" y="589" type="curve" smooth="yes"/>
      <point x="223" y="589"/>
      <point x="269" y="635"/>
      <point x="269" y="692" type="curve" smooth="yes"/>
      <point x="269" y="749"/>
      <point x="223" y="795"/>
      <point x="166" y="795" type="curve" smooth="yes"/>
      <point x="109" y="795"/>
      <point x="63" y="749"/>
      <point x="63" y="692" type="curve" smooth="yes"/>
      <point x="63" y="635"/>
      <point x="109" y="589"/>
    </contour>
    <contour>
      <point x="166" y="633" type="curve" smooth="yes"/>
      <point x="134" y="633"/>
      <point x="107" y="660"/>
      <point x="107" y="692" type="curve" smooth="yes"/>
      <point x="107" y="724"/>
      <point x="134" y="751"/>
      <point x="166" y="751" type="curve" smooth="yes"/>
      <point x="198" y="751"/>
      <point x="225" y="724"/>
      <point x="225" y="692" type="curve" smooth="yes"/>
      <point x="225" y="660"/>
      <point x="198" y="633"/>
    </contour>
    <contour>
      <point x="166" y="517" type="move" name="_top"/>
    </contour>
    <contour>
      <point x="166" y="704" type="move" name="top"/>
    </contour>
  </outline>
</glyph>
<glyph name="tilde" format="1">
  <advance width="452"/>
  <unicode hex="02DC"/>
  <outline>
    <contour>
      <point x="291" y="575" type="curve" smooth="yes"/>
      <point x="346" y="575"/>
      <point x="377" y="618"/>
      <point x="387" y="694" type="curve"/>
      <point x="341" y="701" type="line"/>
      <point x="333" y="653"/>
      <point x="317" y="633"/>
      <point x="291" y="633" type="curve" smooth="yes"/>
      <point x="250" y="633"/>
      <point x="221" y="699"/>
      <point x="162" y="699" type="curve" smooth="yes"/>
      <point x="107" y="699"/>
      <point x="76" y="656"/>
      <point x="66" y="580" type="curve"/>
      <point x="112" y="573" type="line"/>
      <point x="120" y="621"/>
      <point x="136" y="641"/>
      <point x="162" y="641" type="curve" smooth="yes"/>
      <point x="203" y="641"/>
      <point x="232" y="575"/>
    </contour>
    <contour>
      <point x="227" y="517" type="move" name="_top"/>
    </contour>
    <contour>
      <point x="227" y="704" type="move" name="top"/>
    </contour>
  </outline>
</glyph>
<glyph name="hungarumlaut" format="1">
  <advance width="462"/>
  <unicode hex="02DD"/>
  <outline>
    <contour>
      <point x="29" y="575" type="line"/>
      <point x="87" y="575" type="line"/>
      <point x="229" y="702" type="line"/>
      <point x="150" y="720" type="line"/>
    </contour>
    <contour>
      <point x="229" y="575" type="line"/>
      <point x="287" y="575" type="line"/>
      <point x="429" y="700" type="line"/>
      <point x="350" y="718" type="line"/>
    </contour>
    <contour>
      <point x="160" y="517" type="move" name="_top"/>
    </contour>
    <contour>
      <point x="160" y="704" type="move" name="top"/>
    </contour>
  </outline>
</glyph>
<glyph name="dotaccentcomb" format="1">
  <advance width="248"/>
  <unicode hex="0307"/>
  <outline>
    <contour>
      <point x="124" y="611" type="curve" smooth="yes"/>
      <point x="151" y="611"/>
      <point x="173" y="634"/>
      <point x="173" y="661" type="curve" smooth="yes"/>
      <point x="173" y="687"/>
      <point x="151" y="710"/>
      <point x="124" y="710" type="curve" smooth="yes"/>
      <point x="96" y="710"/>
      <point x="74" y="687"/>
      <point x="74" y="661" type="curve" smooth="yes"/>
      <point x="74" y="634"/>
      <point x="96" y="611"/>
    </contour>
    <contour>
      <point x="124" y="517" type="move" name="_top"/>
    </contour>
  </outline>
</glyph>
<glyph name="commaaccentcomb" format="1">
  <advance width="232"/>
  <unicode hex="0326"/>
  <outline>
    <contour>
      <point x="102" y="-275" type="line"/>
      <point x="152" y="-211"/>
      <point x="167" y="-183"/>
      <point x="167" y="-150" type="curve" smooth="yes"/>
      <point x="167" y="-110"/>
      <point x="147" y="-82"/>
      <point x="115" y="-82" type="curve" smooth="yes"/>
      <point x="89" y="-82"/>
      <point x="69" y="-103"/>
      <point x="69" y="-127" type="curve" smooth="yes"/>
      <point x="69" y="-152"/>
      <point x="89" y="-173"/>
      <point x="114" y="-173" type="curve"/>
      <point x="108" y="-200"/>
      <point x="93" y="-226"/>
      <point x="70" y="-252" type="curve"/>
    </contour>
    <contour>
      <point x="115" y="0" type="move" name="_bottom"/>
    </contour>
    <contour>
      <point x="115" y="517" type="move" name="_top"/>
    </contour>
  </outline>
</glyph>
<glyph name="endash" format="1">
  <advance width="637"/>
  <unicode hex="2013"/>
  <outline>
    <contour>
      <point x="86" y="236" type="line"/>
      <point x="551" y="236" type="line"/>
      <point x="551" y="307" type="line"/>
      <point x="86" y="307" type="line"/>
    </contour>
  </outline>
</glyph>
<glyph name="perthousand" format="1">
  <advance width="1210"/>
  <unicode hex="2030"/>
  <outline>
    <contour>
      <point x="147" y="0" type="line"/>
      <point x="223" y="0" type="line"/>
      <point x="693" y="687" type="line"/>
      <point x="617" y="687" type="line"/>
    </contour>
    <contour>
      <point x="614" y="-10" type="curve" smooth="yes"/>
      <point x="707" y="-10"/>
      <point x="774" y="65"/>
      <point x="774" y="163" type="curve" smooth="yes"/>
      <point x="774" y="256"/>
      <point x="710" y="334"/>
      <point x="615" y="334" type="curve" smooth="yes"/>
      <point x="520" y="334"/>
      <point x="455" y="256"/>
      <point x="455" y="162" type="curve" smooth="yes"/>
      <point x="455" y="64"/>
      <point x="522" y="-10"/>
    </contour>
    <contour>
      <point x="615" y="44" type="curve" smooth="yes"/>
      <point x="558" y="44"/>
      <point x="518" y="95"/>
      <point x="518" y="163" type="curve" smooth="yes"/>
      <point x="518" y="228"/>
      <point x="557" y="280"/>
      <point x="614" y="280" type="curve" smooth="yes"/>
      <point x="670" y="280"/>
      <point x="711" y="229"/>
      <point x="711" y="162" type="curve" smooth="yes"/>
      <point x="711" y="94"/>
      <point x="672" y="44"/>
    </contour>
    <contour>
      <point x="222" y="349" type="curve" smooth="yes"/>
      <point x="316" y="349"/>
      <point x="382" y="424"/>
      <point x="382" y="521" type="curve" smooth="yes"/>
      <point x="382" y="616"/>
      <point x="318" y="693"/>
      <point x="223" y="693" type="curve" smooth="yes"/>
      <point x="130" y="693"/>
      <point x="63" y="618"/>
      <point x="63" y="519" type="curve" smooth="yes"/>
      <point x="63" y="426"/>
      <point x="127" y="349"/>
    </contour>
    <contour>
      <point x="223" y="403" type="curve" smooth="yes"/>
      <point x="168" y="403"/>
      <point x="126" y="454"/>
      <point x="126" y="520" type="curve" smooth="yes"/>
      <point x="126" y="589"/>
      <point x="166" y="639"/>
      <point x="222" y="639" type="curve" smooth="yes"/>
      <point x="278" y="639"/>
      <point x="319" y="588"/>
      <point x="319" y="520" type="curve" smooth="yes"/>
      <point x="319" y="453"/>
      <point x="279" y="403"/>
    </contour>
    <contour>
      <point x="987" y="-10" type="curve" smooth="yes"/>
      <point x="1080" y="-10"/>
      <point x="1147" y="65"/>
      <point x="1147" y="163" type="curve" smooth="yes"/>
      <point x="1147" y="256"/>
      <point x="1083" y="334"/>
      <point x="988" y="334" type="curve" smooth="yes"/>
      <point x="893" y="334"/>
      <point x="828" y="256"/>
      <point x="828" y="162" type="curve" smooth="yes"/>
      <point x="828" y="64"/>
      <point x="895" y="-10"/>
    </contour>
    <contour>
      <point x="988" y="44" type="curve" smooth="yes"/>
      <point x="931" y="44"/>
      <point x="891" y="95"/>
      <point x="891" y="163" type="curve" smooth="yes"/>
      <point x="891" y="228"/>
      <point x="930" y="280"/>
      <point x="987" y="280" type="curve" smooth="yes"/>
      <point x="1043" y="280"/>
      <point x="1084" y="229"/>
      <point x="1084" y="162" type="curve" smooth="yes"/>
      <point x="1084" y="94"/>
      <point x="1045" y="44"/>
    </contour>
  </outline>
</glyph>
<glyph name="guilsinglleft" format="1">
  <advance width="315"/>
  <unicode hex="2039"/>
  <outline>
    <contour>
      <point x="195" y="52" type="line"/>
      <point x="270" y="69" type="line"/>
      <point x="123" y="252" type="line"/>
      <point x="270" y="432" type="line"/>
      <point x="195" y="448" type="line"/>
      <point x="34" y="251" type="line"/>
    </contour>
  </outline>
</glyph>
<glyph name="trademark" format="1">
  <advance width="833"/>
  <unicode hex="2122"/>
  <outline>
    <contour>
      <point x="161" y="279" type="line"/>
      <point x="239" y="279" type="line"/>
      <point x="239" y="504" type="line"/>
      <point x="319" y="504" type="line"/>
      <point x="319" y="579" type="line"/>
      <point x="83" y="579" type="line"/>
      <point x="83" y="504" type="line"/>
      <point x="161" y="504" type="line"/>
    </contour>
    <contour>
      <point x="367" y="279" type="line"/>
      <point x="445" y="279" type="line"/>
      <point x="445" y="446" type="line"/>
      <point x="534" y="296" type="line"/>
      <point x="623" y="446" type="line"/>
      <point x="623" y="279" type="line"/>
      <point x="702" y="279" type="line"/>
      <point x="702" y="579" type="line"/>
      <point x="623" y="579" type="line"/>
      <point x="534" y="430" type="line"/>
      <point x="445" y="579" type="line"/>
      <point x="367" y="579" type="line"/>
    </contour>
  </outline>
</glyph>
<glyph name="a.alt" format="1">
  <advance width="635"/>
  <outline>
    <component base="idotless" xOffset="386"/>
    <component base="lowercase_loop_reverse" xOffset="3"/>
    <contour>
      <point x="548" y="0" type="move" name="bottom"/>
    </contour>
    <contour>
      <point x="321" y="517" type="move" name="top"/>
    </contour>
  </outline>
</glyph>
<glyph name="ascender" format="1">
  <advance width="249"/>
  <outline>
    <contour>
      <point x="87" y="0" type="line"/>
      <point x="162" y="0" type="line"/>
      <point x="162" y="699" type="line"/>
      <point x="87" y="699" type="line"/>
    </contour>
    <contour>
      <point x="151" y="126" type="move" name="k_arms"/>
    </contour>
    <contour>
      <point x="87" y="259" type="move" name="loop_left"/>
    </contour>
    <contour>
      <point x="162" y="259" type="move" name="loop_right"/>
    </contour>
    <contour>
      <point x="162" y="329" type="move" name="shoulder"/>
    </contour>
  </outline>
</glyph>
<glyph name="descender" format="1">
  <advance width="249"/>
  <outline>
    <contour>
      <point x="87" y="-172" type="line"/>
      <point x="162" y="-172" type="line"/>
      <point x="162" y="517" type="line"/>
      <point x="87" y="517" type="line"/>
    </contour>
    <contour>
      <point x="87" y="259" type="move" name="loop_left"/>
    </contour>
    <contour>
      <point x="162" y="259" type="move" name="loop_right"/>
    </contour>
  </outline>
</glyph>
<glyph name="lowercase_loop" format="1">
  <advance width="555"/>
  <outline>
    <contour>
      <point x="273" y="-12" type="curve" smooth="yes"/>
      <point x="409" y="-12"/>
      <point x="511" y="100"/>
      <point x="511" y="259" type="curve" smooth="yes"/>
      <point x="511" y="417"/>
      <point x="409" y="529"/>
      <point x="273" y="529" type="curve" smooth="yes"/>
      <point x="136" y="529"/>
      <point x="46" y="417"/>
      <point x="46" y="259" type="curve" smooth="yes"/>
      <point x="46" y="100"/>
      <point x="136" y="-12"/>
    </contour>
    <contour>
      <point x="259" y="55" type="curve" smooth="yes"/>
      <point x="157" y="55"/>
      <point x="85" y="140"/>
      <point x="85" y="259" type="curve" smooth="yes"/>
      <point x="85" y="378"/>
      <point x="157" y="462"/>
      <point x="259" y="462" type="curve" smooth="yes"/>
      <point x="360" y="462"/>
      <point x="432" y="378"/>
      <point x="432" y="259" type="curve" smooth="yes"/>
      <point x="432" y="140"/>
      <point x="360" y="55"/>
    </contour>
    <contour>
      <point x="85" y="259" type="move" name="_loop_right"/>
    </contour>
  </outline>
</glyph>
<glyph name="lowercase_nh_shoulder" format="1">
  <advance width="471"/>
  <outline>
    <contour>
      <point x="323" y="0" type="line"/>
      <point x="398" y="0" type="line"/>
      <point x="398" y="329" type="line" smooth="yes"/>
      <point x="398" y="448"/>
      <point x="319" y="529"/>
      <point x="204" y="529" type="curve" smooth="yes"/>
      <point x="107" y="529"/>
      <point x="23" y="462"/>
      <point x="18" y="379" type="curve"/>
      <point x="34" y="329" type="line"/>
      <point x="34" y="402"/>
      <point x="106" y="462"/>
      <point x="194" y="462" type="curve" smooth="yes"/>
      <point x="270" y="462"/>
      <point x="323" y="404"/>
      <point x="323" y="319" type="curve" smooth="yes"/>
    </contour>
    <contour>
      <point x="34" y="329" type="move" name="_shoulder"/>
    </contour>
  </outline>
</glyph>
<glyph name="lowercase_r_shoulder" format="1">
  <advance width="304"/>
  <outline>
    <contour>
      <point x="70" y="289" type="line"/>
      <point x="70" y="390"/>
      <point x="153" y="462"/>
      <point x="270" y="462" type="curve"/>
      <point x="270" y="529" type="line"/>
      <point x="143" y="529"/>
      <point x="54" y="450"/>
      <point x="54" y="339" type="curve"/>
    </contour>
    <contour>
      <point x="70" y="291" type="move" name="_r_shoulder"/>
    </contour>
  </outline>
</glyph>
